<svg width="70" height="70" fill="none" xmlns="http://www.w3.org/2000/svg"><path d="M27.667 12.538h-.944v-.944a1.026 1.026 0 1 0-2.052 0v.944h-.944a1.026 1.026 0 0 0 0 2.052h.944v.944a1.026 1.026 0 1 0 2.052 0v-.944h.944a1.026 1.026 0 1 0 0-2.052ZM46.272 12.538h-.944v-.944a1.026 1.026 0 0 0-2.052 0v.944h-.945a1.026 1.026 0 1 0 0 2.052h.945v.944a1.026 1.026 0 1 0 2.052 0v-.944h.944a1.026 1.026 0 1 0 0-2.052ZM27.667 26.63h-.944v-.945a1.026 1.026 0 1 0-2.052 0v.945h-.944a1.026 1.026 0 0 0 0 2.051h.944v.945a1.026 1.026 0 1 0 2.052 0v-.945h.944a1.026 1.026 0 1 0 0-2.052ZM46.272 26.63h-.944v-.945a1.026 1.026 0 1 0-2.052 0v.945h-.945a1.026 1.026 0 0 0 0 2.051h.945v.945a1.026 1.026 0 1 0 2.052 0v-.945h.944a1.026 1.026 0 1 0 0-2.052Z" fill="#fff"/><path d="M63.456 29.052H49.879c-1.16 0-2.103.943-2.103 2.103v2.778c0 1.16.943 2.103 2.103 2.103h.197v4.644a5.338 5.338 0 0 0-3.313-1.15H22.968c-1.25 0-2.401.43-3.314 1.15v-4.654h.467c1.16 0 2.103-.944 2.103-2.103v-2.778c0-1.16-.943-2.103-2.103-2.103H6.544c-1.16 0-2.103.943-2.103 2.103v2.778c0 1.16.943 2.103 2.103 2.103h.467V49.12a4.019 4.019 0 0 0 3.663 3.998v2.046a2.95 2.95 0 0 0 2.947 2.948h2.351v9.836h-1.469a1.026 1.026 0 1 0 0 2.052h10.252a1.026 1.026 0 0 0 0-2.052h-1.47v-9.836h23.16v9.836h-1.47a1.026 1.026 0 1 0 0 2.052h10.252a1.026 1.026 0 0 0 0-2.052h-1.469v-9.836h2.351a2.95 2.95 0 0 0 2.947-2.948v-2.046a4.019 4.019 0 0 0 3.663-3.998V36.037h.737c1.16 0 2.104-.944 2.104-2.103v-2.778c0-1.16-.944-2.103-2.104-2.103Zm-40.489 12.53h23.796a3.318 3.318 0 0 1 3.314 3.314v6.187H19.654v-6.187a3.318 3.318 0 0 1 3.314-3.314ZM6.545 33.974a.052.052 0 0 1-.051-.051v-2.778c0-.028.023-.051.051-.051h13.577c.028 0 .051.023.051.051v2.778a.052.052 0 0 1-.051.051H6.544Zm4.481 17.109a1.964 1.964 0 0 1-1.962-1.962V36.026h8.539v15.057h-6.577Zm10.209 16.865h-3.21v-9.836h3.21v9.836Zm30.472 0h-3.21v-9.836h3.21v9.836Zm5.298-12.784a.896.896 0 0 1-.895.896H13.621a.896.896 0 0 1-.895-.896v-2.03h44.278v2.03Zm3.663-6.043c0 1.081-.88 1.962-1.962 1.962h-6.576V36.036h8.538v13.085Zm2.84-15.188a.052.052 0 0 1-.05.051H49.878a.052.052 0 0 1-.051-.051v-2.778c0-.028.023-.051.051-.051h13.577c.028 0 .052.023.052.051v2.778ZM57.696 8.455C57.696 3.793 53.903 0 49.24 0H20.486c-4.662 0-8.455 3.793-8.455 8.455V25.27a1.026 1.026 0 0 0 2.052 0V8.455a6.41 6.41 0 0 1 6.403-6.403h28.755c3.53 0 6.403 2.872 6.403 6.408l.08 16.814a1.026 1.026 0 0 0 1.025 1.02h.005a1.026 1.026 0 0 0 1.021-1.03l-.08-16.809Z" fill="#fff"/></svg>