<svg width="70" height="70" fill="none" xmlns="http://www.w3.org/2000/svg"><path d="M68.927 33.641V3.936c0-.567-.46-1.027-1.027-1.027H2.1c-.567 0-1.027.46-1.027 1.027V33.64A2.011 2.011 0 0 0 0 35.418v2.108c0 .77.436 1.44 1.073 1.777v26.761c0 .567.46 1.027 1.027 1.027h65.8c.567 0 1.027-.46 1.027-1.027V39.303A2.011 2.011 0 0 0 70 37.526v-2.108c0-.77-.436-1.44-1.073-1.777ZM66.486 4.963c-.412.604-1.171 1.313-2.373 2.068l-.044.028a17.047 17.047 0 0 1-.315.19l-.169.099-.138.08-.138.076-.173.096-.032.017c-.148.08-.303.16-.46.241l-.128.065-.185.091-.172.084a23.06 23.06 0 0 1-.834.385l-.068.03c-.42.184-.866.369-1.342.553-.615.239-1.271.475-1.973.707A57.443 57.443 0 0 1 51.84 11.4a1.047 1.047 0 0 0-.103.015c-2.045.428-4.197.78-6.397 1.046-.028.004-.055.01-.082.015A87.003 87.003 0 0 1 35 13.077a87.05 87.05 0 0 1-10.257-.6c-.027-.006-.054-.012-.082-.015a75.83 75.83 0 0 1-6.397-1.046 1.017 1.017 0 0 0-.103-.016 57.48 57.48 0 0 1-6.103-1.627 40.953 40.953 0 0 1-1.973-.707 33.528 33.528 0 0 1-1.342-.552l-.068-.031a29.615 29.615 0 0 1-.666-.304l-.168-.08-.172-.084c-.062-.03-.124-.06-.184-.091l-.128-.065c-.156-.08-.309-.16-.456-.24-.012-.006-.025-.012-.036-.019-.06-.031-.116-.063-.173-.095l-.138-.077-.139-.08a18.083 18.083 0 0 1-.169-.098l-.1-.06a15.709 15.709 0 0 1-.214-.131l-.045-.028c-1.202-.755-1.961-1.463-2.372-2.068h62.97ZM3.126 7.569c.317.274.68.553 1.092.835 1.09.755 2.545 1.54 4.476 2.325C8.692 17.18 6.81 24.359 5.2 29.32a1.027 1.027 0 1 0 1.953.634c1.594-4.911 3.444-11.948 3.584-18.461.22.076.445.153.676.229a58.01 58.01 0 0 0 5.326 1.467c-2.17 6.735-5.71 12.287-8.361 15.824a1.027 1.027 0 1 0 1.643 1.232c2.774-3.7 6.487-9.532 8.739-16.629 1.414.277 2.87.518 4.356.72-2.175 5.33-6.527 10.82-9.916 14.6a1.027 1.027 0 1 0 1.53 1.371c6.318-7.048 9.188-12.33 10.49-15.71 3.174.35 6.463.533 9.779.533s6.605-.183 9.779-.534c2.22 5.775 6.89 11.696 10.499 15.721a1.027 1.027 0 0 0 1.53-1.37c-3.393-3.784-7.749-9.277-9.925-14.61a76.495 76.495 0 0 0 4.356-.72c2.254 7.104 5.974 12.942 8.753 16.646a1.025 1.025 0 0 0 1.437.205c.454-.34.546-.984.205-1.437-2.656-3.541-6.201-9.1-8.374-15.842a58.058 58.058 0 0 0 5.326-1.467c.23-.076.455-.153.676-.23.14 6.51 1.988 13.543 3.58 18.45a1.027 1.027 0 0 0 1.954-.633c-1.609-4.959-3.488-12.133-3.49-18.581 1.93-.785 3.385-1.57 4.476-2.325.412-.282.775-.561 1.091-.835v25.839h-5.696c-1.109 0-2.01.901-2.01 2.01v2.108c0 .546.22 1.041.574 1.404a150.237 150.237 0 0 0-2.074 6.832H12.333c-.71-2.57-1.452-4.943-2.074-6.832.355-.363.575-.858.575-1.404v-2.108c0-1.108-.902-2.01-2.01-2.01H3.127V7.568ZM2.055 37.482v-2.02H8.78v2.02H2.054Zm5.284 27.221a.652.652 0 0 1-.573.334H3.127V39.536h.984c3.74 12.663 4.947 22.043 3.227 25.167Zm5.035.334V59.37c0-1.22.993-2.213 2.214-2.213h5.333c1.22 0 2.213.993 2.213 2.213v5.668h-9.76Zm11.814 0V59.37c0-1.22.993-2.213 2.214-2.213h5.333c1.22 0 2.213.993 2.213 2.213v5.668h-9.76Zm11.814 0V59.37c0-1.22.994-2.213 2.214-2.213h5.333c1.22 0 2.214.993 2.214 2.213v5.668h-9.76Zm21.575 0h-9.76V59.37c0-1.22.993-2.213 2.213-2.213h5.333c1.22 0 2.214.993 2.214 2.213v5.668Zm2.054 0V59.37a4.272 4.272 0 0 0-4.268-4.267H50.03a4.258 4.258 0 0 0-3.24 1.495 4.258 4.258 0 0 0-3.24-1.495h-5.334a4.259 4.259 0 0 0-3.24 1.495 4.259 4.259 0 0 0-3.241-1.495h-5.333a4.259 4.259 0 0 0-3.24 1.495 4.259 4.259 0 0 0-3.241-1.495h-5.333a4.272 4.272 0 0 0-4.268 4.267v5.668h-.877c2.081-5.26-.893-17.612-3.19-25.501h2.045c.97 2.947 2.24 7.096 3.213 11.31a1.027 1.027 0 1 0 2-.462c-.198-.862-.41-1.721-.628-2.568h44.236c-.22.855-.434 1.722-.634 2.593a1.027 1.027 0 1 0 2.001.462c.974-4.223 2.246-8.382 3.219-11.335h2.045c-2.298 7.889-5.272 20.24-3.19 25.501h-.93Zm7.243 0h-3.638a.652.652 0 0 1-.573-.334c-1.72-3.124-.513-12.504 3.227-25.167h.984v25.501Zm1.073-27.555H61.22v-2.02h6.726v2.02Z" fill="#fff"/></svg>